<?xml version="1.0" encoding="UTF-8"?>
<svg xmlns="http://www.w3.org/2000/svg" xmlns:xlink="http://www.w3.org/1999/xlink" width="50pt" height="50pt" viewBox="0 0 50 50" version="1.1">
<g id="surface9600080">
<path style=" stroke:none;fill-rule:nonzero;fill:rgb(0%,0%,0%);fill-opacity:1;" d="M 7 2 L 7 48 L 43 48 L 43 14.59375 L 42.71875 14.28125 L 30.71875 2.28125 L 30.40625 2 Z M 9 4 L 29 4 L 29 16 L 41 16 L 41 46 L 9 46 Z M 31 5.4375 L 39.5625 14 L 31 14 Z M 31 5.4375 "/>
<path style=" stroke:none;fill-rule:nonzero;fill:rgb(0%,0%,0%);fill-opacity:1;" d="M 18.773438 29.566406 L 20.28125 29.566406 C 20.140625 30.769531 19.695312 31.699219 18.949219 32.351562 C 18.203125 33.003906 17.210938 33.332031 15.972656 33.332031 C 14.628906 33.332031 13.554688 32.851562 12.742188 31.886719 C 11.933594 30.925781 11.53125 29.636719 11.53125 28.023438 L 11.53125 26.929688 C 11.53125 25.871094 11.71875 24.941406 12.09375 24.144531 C 12.472656 23.339844 13.007812 22.726562 13.699219 22.296875 C 14.390625 21.867188 15.191406 21.652344 16.101562 21.652344 C 17.3125 21.652344 18.277344 21.988281 19.007812 22.664062 C 19.734375 23.335938 20.160156 24.269531 20.28125 25.460938 L 18.773438 25.460938 C 18.644531 24.554688 18.363281 23.898438 17.925781 23.496094 C 17.492188 23.085938 16.882812 22.882812 16.101562 22.882812 C 15.144531 22.882812 14.394531 23.238281 13.851562 23.949219 C 13.308594 24.65625 13.035156 25.664062 13.035156 26.96875 L 13.035156 28.070312 C 13.035156 29.304688 13.292969 30.285156 13.808594 31.011719 C 14.324219 31.742188 15.046875 32.105469 15.972656 32.105469 C 16.804688 32.105469 17.441406 31.917969 17.886719 31.539062 C 18.332031 31.164062 18.628906 30.503906 18.773438 29.566406 Z M 26.238281 23.757812 L 26.238281 27.078125 L 29.40625 27.078125 L 29.40625 28.445312 L 26.238281 28.445312 L 26.238281 32.035156 L 24.785156 32.035156 L 24.785156 28.445312 L 21.613281 28.445312 L 21.613281 27.078125 L 24.785156 27.078125 L 24.785156 23.757812 Z M 35.300781 23.757812 L 35.300781 27.078125 L 38.46875 27.078125 L 38.46875 28.445312 L 35.300781 28.445312 L 35.300781 32.035156 L 33.851562 32.035156 L 33.851562 28.445312 L 30.679688 28.445312 L 30.679688 27.078125 L 33.851562 27.078125 L 33.851562 23.757812 Z M 35.300781 23.757812 "/>
</g>
</svg>
