<?xml version="1.0" encoding="UTF-8"?>
<svg xmlns="http://www.w3.org/2000/svg" xmlns:xlink="http://www.w3.org/1999/xlink" width="50pt" height="50pt" viewBox="0 0 50 50" version="1.1">
<g id="surface9599546">
<path style=" stroke:none;fill-rule:nonzero;fill:rgb(0%,0%,0%);fill-opacity:1;" d="M 7 2 L 7 48 L 43 48 L 43 14.59375 L 42.71875 14.28125 L 30.71875 2.28125 L 30.40625 2 Z M 9 4 L 29 4 L 29 16 L 41 16 L 41 46 L 9 46 Z M 31 5.4375 L 39.5625 14 L 31 14 Z M 31 5.4375 "/>
<path style=" stroke:none;fill-rule:nonzero;fill:rgb(0%,0%,0%);fill-opacity:1;" d="M 28.128906 29.753906 L 29.773438 29.753906 C 29.621094 31.066406 29.136719 32.078125 28.320312 32.792969 C 27.503906 33.503906 26.421875 33.863281 25.074219 33.863281 C 23.609375 33.863281 22.433594 33.335938 21.550781 32.285156 C 20.667969 31.238281 20.226562 29.832031 20.226562 28.070312 L 20.226562 26.875 C 20.226562 25.726562 20.433594 24.710938 20.84375 23.835938 C 21.253906 22.960938 21.835938 22.289062 22.59375 21.820312 C 23.347656 21.355469 24.222656 21.121094 25.214844 21.121094 C 26.53125 21.121094 27.589844 21.488281 28.382812 22.222656 C 29.179688 22.960938 29.640625 23.976562 29.773438 25.273438 L 28.128906 25.273438 C 27.988281 24.289062 27.679688 23.574219 27.207031 23.128906 C 26.730469 22.6875 26.066406 22.46875 25.214844 22.46875 C 24.171875 22.46875 23.351562 22.851562 22.757812 23.625 C 22.164062 24.398438 21.871094 25.496094 21.871094 26.921875 L 21.871094 28.121094 C 21.871094 29.464844 22.148438 30.535156 22.710938 31.332031 C 23.273438 32.125 24.0625 32.523438 25.074219 32.523438 C 25.980469 32.523438 26.675781 32.320312 27.164062 31.90625 C 27.648438 31.496094 27.96875 30.777344 28.128906 29.753906 Z M 28.128906 29.753906 "/>
</g>
</svg>
