<?xml version="1.0" encoding="UTF-8"?>
<svg xmlns="http://www.w3.org/2000/svg" xmlns:xlink="http://www.w3.org/1999/xlink" width="50pt" height="50pt" viewBox="0 0 50 50" version="1.1">
<g id="surface9581125">
<path style=" stroke:none;fill-rule:nonzero;fill:rgb(0%,0%,0%);fill-opacity:1;" d="M 7 2 L 7 48 L 43 48 L 43 14.59375 L 42.71875 14.28125 L 30.71875 2.28125 L 30.40625 2 Z M 9 4 L 29 4 L 29 16 L 41 16 L 41 46 L 9 46 Z M 31 5.4375 L 39.5625 14 L 31 14 Z M 31 5.4375 "/>
<path style=" stroke:none;fill-rule:nonzero;fill:rgb(0%,0%,0%);fill-opacity:1;" d="M 18.320312 29.566406 L 19.828125 29.566406 C 19.6875 30.769531 19.242188 31.699219 18.496094 32.351562 C 17.75 33.003906 16.757812 33.332031 15.519531 33.332031 C 14.175781 33.332031 13.097656 32.851562 12.289062 31.886719 C 11.480469 30.925781 11.078125 29.636719 11.078125 28.023438 L 11.078125 26.929688 C 11.078125 25.871094 11.265625 24.941406 11.640625 24.144531 C 12.019531 23.339844 12.554688 22.726562 13.246094 22.296875 C 13.9375 21.867188 14.738281 21.652344 15.648438 21.652344 C 16.855469 21.652344 17.824219 21.988281 18.554688 22.664062 C 19.28125 23.335938 19.707031 24.269531 19.828125 25.460938 L 18.320312 25.460938 C 18.191406 24.554688 17.910156 23.898438 17.472656 23.496094 C 17.039062 23.085938 16.429688 22.882812 15.648438 22.882812 C 14.691406 22.882812 13.941406 23.238281 13.398438 23.949219 C 12.855469 24.65625 12.582031 25.664062 12.582031 26.96875 L 12.582031 28.070312 C 12.582031 29.304688 12.839844 30.285156 13.355469 31.011719 C 13.871094 31.742188 14.59375 32.105469 15.519531 32.105469 C 16.351562 32.105469 16.988281 31.917969 17.433594 31.539062 C 17.878906 31.164062 18.175781 30.503906 18.320312 29.566406 Z M 25.222656 28.109375 C 23.9375 27.738281 23 27.285156 22.414062 26.746094 C 21.828125 26.207031 21.535156 25.542969 21.535156 24.75 C 21.535156 23.855469 21.894531 23.113281 22.609375 22.53125 C 23.324219 21.945312 24.257812 21.652344 25.402344 21.652344 C 26.183594 21.652344 26.878906 21.804688 27.488281 22.105469 C 28.101562 22.40625 28.574219 22.824219 28.910156 23.355469 C 29.246094 23.886719 29.414062 24.464844 29.414062 25.09375 L 27.910156 25.09375 C 27.910156 24.40625 27.6875 23.867188 27.25 23.472656 C 26.8125 23.082031 26.195312 22.882812 25.402344 22.882812 C 24.664062 22.882812 24.085938 23.046875 23.671875 23.371094 C 23.257812 23.699219 23.050781 24.148438 23.050781 24.726562 C 23.050781 25.191406 23.246094 25.582031 23.640625 25.902344 C 24.035156 26.222656 24.703125 26.515625 25.648438 26.78125 C 26.59375 27.046875 27.332031 27.339844 27.863281 27.660156 C 28.398438 27.980469 28.792969 28.351562 29.050781 28.78125 C 29.308594 29.207031 29.4375 29.707031 29.4375 30.285156 C 29.4375 31.207031 29.078125 31.945312 28.359375 32.5 C 27.640625 33.054688 26.683594 33.332031 25.476562 33.332031 C 24.699219 33.332031 23.96875 33.179688 23.292969 32.882812 C 22.617188 32.582031 22.09375 32.171875 21.726562 31.652344 C 21.363281 31.132812 21.179688 30.542969 21.179688 29.882812 L 22.683594 29.882812 C 22.683594 30.566406 22.9375 31.109375 23.445312 31.507812 C 23.953125 31.90625 24.632812 32.105469 25.476562 32.105469 C 26.269531 32.105469 26.878906 31.945312 27.296875 31.621094 C 27.71875 31.300781 27.933594 30.859375 27.933594 30.304688 C 27.933594 29.746094 27.734375 29.3125 27.34375 29.007812 C 26.953125 28.703125 26.246094 28.40625 25.222656 28.109375 Z M 34.707031 28.109375 C 33.421875 27.738281 32.484375 27.285156 31.898438 26.746094 C 31.3125 26.207031 31.023438 25.542969 31.023438 24.75 C 31.023438 23.855469 31.378906 23.113281 32.09375 22.53125 C 32.8125 21.945312 33.742188 21.652344 34.886719 21.652344 C 35.667969 21.652344 36.363281 21.804688 36.976562 22.105469 C 37.585938 22.40625 38.058594 22.824219 38.398438 23.355469 C 38.730469 23.886719 38.898438 24.464844 38.898438 25.09375 L 37.394531 25.09375 C 37.394531 24.40625 37.175781 23.867188 36.738281 23.472656 C 36.300781 23.082031 35.683594 22.882812 34.886719 22.882812 C 34.148438 22.882812 33.570312 23.046875 33.160156 23.371094 C 32.742188 23.699219 32.535156 24.148438 32.535156 24.726562 C 32.535156 25.191406 32.734375 25.582031 33.125 25.902344 C 33.519531 26.222656 34.1875 26.515625 35.132812 26.78125 C 36.078125 27.046875 36.816406 27.339844 37.351562 27.660156 C 37.882812 27.980469 38.277344 28.351562 38.535156 28.78125 C 38.792969 29.207031 38.921875 29.707031 38.921875 30.285156 C 38.921875 31.207031 38.5625 31.945312 37.84375 32.5 C 37.128906 33.054688 36.167969 33.332031 34.964844 33.332031 C 34.183594 33.332031 33.457031 33.179688 32.777344 32.882812 C 32.101562 32.582031 31.578125 32.171875 31.214844 31.652344 C 30.847656 31.132812 30.664062 30.542969 30.664062 29.882812 L 32.171875 29.882812 C 32.171875 30.566406 32.425781 31.109375 32.933594 31.507812 C 33.4375 31.90625 34.117188 32.105469 34.964844 32.105469 C 35.757812 32.105469 36.363281 31.945312 36.785156 31.621094 C 37.207031 31.300781 37.417969 30.859375 37.417969 30.304688 C 37.417969 29.746094 37.222656 29.3125 36.828125 29.007812 C 36.441406 28.703125 35.734375 28.40625 34.707031 28.109375 Z M 34.707031 28.109375 "/>
</g>
</svg>
