<svg width="122.88" height="122.88" xmlns="http://www.w3.org/2000/svg">
 <style type="text/css">.st0{fill-rule:evenodd;clip-rule:evenodd;}</style>

 <g>
  <title>background</title>
  <rect fill="none" id="canvas_background" height="124.88" width="124.88" y="-1" x="-1"/>
 </g>
 <g>
  <title>Layer 1</title>
  <g id="svg_1">
   <path class="st0" d="m102.75469,56.99469l0,-19.66l-20.67,0c-2.17,0 -5.19,-1.17 -6.62,-2.6c-1.43,-1.43 -2.3,-4.01 -2.3,-6.17l0,-20.93l0,0l-52.52,0c-0.18,0 -0.32,0.09 -0.41,0.18c-0.15,0.1 -0.19,0.23 -0.19,0.42l0,106.45c0,0.14 0.09,0.32 0.18,0.41c0.09,0.14 0.28,0.18 0.41,0.18c22.78,0 58.09,0 81.51,0c0.18,0 0.17,-0.09 0.27,-0.18c0.14,-0.09 0.33,-0.28 0.33,-0.41l0,-11.16l0.01,-46.53zm2.54,30.2c0.75,-0.24 1.61,-0.65 2.59,-1.22l-2.59,1.22zm4.99,-30.2l0,46.54l0,13.55c0,1.61 -0.65,3.04 -1.7,4.1c-1.06,1.06 -2.49,1.7 -4.1,1.7c-29.44,0 -56.59,0 -86.18,0c-1.61,0 -3.04,-0.64 -4.1,-1.7c-1.06,-1.06 -1.7,-2.49 -1.7,-4.1l0,-111.24c0,-1.61 0.65,-3.04 1.7,-4.1c1.06,-1.06 2.53,-1.7 4.1,-1.7l58.72,0c0.13,-0.05 0.27,-0.05 0.41,-0.05c0.64,0 1.29,0.28 1.75,0.69l0.09,0c0.09,0.05 0.14,0.09 0.23,0.18l29.99,30.36c0.51,0.51 0.88,1.2 0.88,1.98c0,0.23 -0.05,0.41 -0.09,0.65l0,23.14l0,0zm-30.27,-29.03l0,-19.03l21.43,21.7l-18.76,0c-0.74,0 -1.38,-0.32 -1.89,-0.78c-0.46,-0.46 -0.78,-1.15 -0.78,-1.89l0,0z" id="svg_2" fill="#181c32"/>
  </g>
 </g>
</svg>