<?xml version="1.0" encoding="UTF-8"?>
<svg xmlns="http://www.w3.org/2000/svg" xmlns:xlink="http://www.w3.org/1999/xlink" width="50pt" height="50pt" viewBox="0 0 50 50" version="1.1">
<g id="surface9581044">
<path style=" stroke:none;fill-rule:nonzero;fill:rgb(0%,0%,0%);fill-opacity:1;" d="M 7 2 L 7 48 L 43 48 L 43 14.59375 L 42.71875 14.28125 L 30.71875 2.28125 L 30.40625 2 Z M 9 4 L 29 4 L 29 16 L 41 16 L 41 46 L 9 46 Z M 31 5.4375 L 39.5625 14 L 31 14 Z M 31 5.4375 "/>
<path style=" stroke:none;fill-rule:nonzero;fill:rgb(0%,0%,0%);fill-opacity:1;" d="M 21.75 30.097656 L 21.75 21.289062 L 23.394531 21.289062 L 23.394531 30.070312 C 23.394531 31.257812 23.039062 32.1875 22.324219 32.855469 C 21.613281 33.527344 20.664062 33.863281 19.476562 33.863281 C 18.246094 33.863281 17.285156 33.546875 16.597656 32.914062 C 15.910156 32.285156 15.566406 31.402344 15.566406 30.265625 L 17.203125 30.265625 C 17.203125 30.976562 17.398438 31.53125 17.785156 31.929688 C 18.175781 32.328125 18.738281 32.523438 19.476562 32.523438 C 20.152344 32.523438 20.699219 32.3125 21.117188 31.886719 C 21.53125 31.460938 21.746094 30.863281 21.75 30.097656 Z M 29.835938 28.164062 C 28.429688 27.761719 27.410156 27.265625 26.769531 26.675781 C 26.132812 26.089844 25.8125 25.363281 25.8125 24.5 C 25.8125 23.523438 26.203125 22.71875 26.984375 22.078125 C 27.765625 21.441406 28.777344 21.121094 30.027344 21.121094 C 30.878906 21.121094 31.640625 21.285156 32.308594 21.617188 C 32.976562 21.945312 33.492188 22.398438 33.859375 22.976562 C 34.222656 23.554688 34.40625 24.1875 34.40625 24.875 L 32.761719 24.875 C 32.761719 24.125 32.523438 23.539062 32.046875 23.109375 C 31.570312 22.679688 30.898438 22.46875 30.027344 22.46875 C 29.222656 22.46875 28.59375 22.644531 28.140625 23 C 27.691406 23.355469 27.464844 23.847656 27.464844 24.476562 C 27.464844 24.980469 27.679688 25.410156 28.109375 25.757812 C 28.535156 26.105469 29.265625 26.425781 30.296875 26.71875 C 31.328125 27.003906 32.132812 27.324219 32.714844 27.671875 C 33.296875 28.023438 33.730469 28.429688 34.011719 28.898438 C 34.292969 29.363281 34.433594 29.910156 34.433594 30.539062 C 34.433594 31.546875 34.039062 32.351562 33.253906 32.957031 C 32.472656 33.558594 31.425781 33.863281 30.113281 33.863281 C 29.261719 33.863281 28.46875 33.699219 27.730469 33.371094 C 26.992188 33.046875 26.421875 32.597656 26.019531 32.03125 C 25.621094 31.464844 25.421875 30.820312 25.421875 30.097656 L 27.0625 30.097656 C 27.0625 30.847656 27.339844 31.4375 27.894531 31.875 C 28.449219 32.308594 29.1875 32.523438 30.113281 32.523438 C 30.976562 32.523438 31.636719 32.347656 32.097656 31.996094 C 32.558594 31.644531 32.789062 31.164062 32.789062 30.558594 C 32.789062 29.949219 32.574219 29.480469 32.148438 29.148438 C 31.722656 28.816406 30.953125 28.488281 29.835938 28.164062 Z M 29.835938 28.164062 "/>
</g>
</svg>
