<?xml version="1.0" encoding="UTF-8"?>
<svg xmlns="http://www.w3.org/2000/svg" xmlns:xlink="http://www.w3.org/1999/xlink" width="50pt" height="50pt" viewBox="0 0 50 50" version="1.1">
<g id="surface9581242">
<path style=" stroke:none;fill-rule:nonzero;fill:rgb(0%,0%,0%);fill-opacity:1;" d="M 7 2 L 7 48 L 43 48 L 43 14.59375 L 42.71875 14.28125 L 30.71875 2.28125 L 30.40625 2 Z M 9 4 L 29 4 L 29 16 L 41 16 L 41 46 L 9 46 Z M 31 5.4375 L 39.5625 14 L 31 14 Z M 31 5.4375 "/>
<path style=" stroke:none;fill-rule:nonzero;fill:rgb(0%,0%,0%);fill-opacity:1;" d="M 19.621094 28.835938 L 16.699219 28.835938 L 16.699219 33.691406 L 15.0625 33.691406 L 15.0625 21.292969 L 19.632812 21.292969 C 20.992188 21.292969 22.054688 21.636719 22.824219 22.332031 C 23.59375 23.023438 23.980469 23.941406 23.980469 25.082031 C 23.980469 26.285156 23.601562 27.210938 22.847656 27.863281 C 22.097656 28.511719 21.019531 28.835938 19.621094 28.835938 Z M 16.699219 22.636719 L 16.699219 27.5 L 19.632812 27.5 C 20.507812 27.5 21.179688 27.296875 21.644531 26.882812 C 22.109375 26.472656 22.34375 25.875 22.34375 25.097656 C 22.34375 24.359375 22.109375 23.769531 21.644531 23.328125 C 21.179688 22.886719 20.542969 22.65625 19.730469 22.636719 Z M 26.628906 21.292969 L 29.847656 27.519531 L 33.082031 21.292969 L 34.9375 21.292969 L 30.664062 29.066406 L 30.664062 33.691406 L 29.027344 33.691406 L 29.027344 29.066406 L 24.753906 21.292969 Z M 26.628906 21.292969 "/>
</g>
</svg>
