<?xml version="1.0" encoding="UTF-8"?>
<svg xmlns="http://www.w3.org/2000/svg" xmlns:xlink="http://www.w3.org/1999/xlink" width="50pt" height="50pt" viewBox="0 0 50 50" version="1.1">
<g id="surface9582732">
<path style=" stroke:none;fill-rule:nonzero;fill:rgb(0%,0%,0%);fill-opacity:1;" d="M 7 2 L 7 48 L 43 48 L 43 14.59375 L 42.71875 14.28125 L 30.71875 2.28125 L 30.40625 2 Z M 9 4 L 29 4 L 29 16 L 41 16 L 41 46 L 9 46 Z M 31 5.4375 L 39.5625 14 L 31 14 Z M 31 5.4375 "/>
<path style=" stroke:none;fill-rule:nonzero;fill:rgb(0%,0%,0%);fill-opacity:1;" d="M 27.746094 33.691406 L 25.058594 28.675781 L 22.144531 28.675781 L 22.144531 33.691406 L 20.5 33.691406 L 20.5 21.292969 L 24.601562 21.292969 C 26 21.292969 27.074219 21.609375 27.828125 22.246094 C 28.578125 22.882812 28.953125 23.808594 28.953125 25.023438 C 28.953125 25.796875 28.746094 26.46875 28.328125 27.042969 C 27.914062 27.613281 27.332031 28.042969 26.589844 28.324219 L 29.5 33.589844 L 29.5 33.691406 Z M 22.144531 22.636719 L 22.144531 27.335938 L 24.65625 27.335938 C 25.46875 27.335938 26.113281 27.128906 26.589844 26.710938 C 27.070312 26.289062 27.3125 25.726562 27.3125 25.023438 C 27.3125 24.257812 27.082031 23.667969 26.625 23.257812 C 26.167969 22.851562 25.507812 22.644531 24.648438 22.636719 Z M 22.144531 22.636719 "/>
</g>
</svg>
