<svg width="122.88" height="107.128" xmlns="http://www.w3.org/2000/svg">

 <g>
  <title>background</title>
  <rect fill="none" id="canvas_background" height="602" width="802" y="-1" x="-1"/>
 </g>
 <g>
  <title>Layer 1</title>
  <g id="svg_1">
   <path fill="#ffffff" id="svg_2" d="m2.788,0l117.297,0c1.544,0 2.795,1.251 2.795,2.795c0,0.85 -0.379,1.611 -0.978,2.124l-46.82,46.586l0,39.979c0,1.107 -0.643,2.063 -1.576,2.516l-22.086,12.752c-1.333,0.771 -3.039,0.316 -3.812,-1.016c-0.255,-0.441 -0.376,-0.922 -0.375,-1.398l-0.006,0l0,-52.842l-46.416,-46.735c-1.086,-1.092 -1.081,-2.857 0.011,-3.942c0.544,-0.541 1.255,-0.811 1.966,-0.811l0,-0.008l0,0zm110.535,5.591l-103.83,0l42.358,42.649c0.592,0.512 0.966,1.27 0.966,2.114l0,49.149l16.674,-9.625l0,-39.524l0.008,0c0,-0.716 0.274,-1.432 0.822,-1.977l43.002,-42.786l0,0z"/>
  </g>
 </g>
</svg>