<svg width="180" height="180" xmlns="http://www.w3.org/2000/svg">
 <style type="text/css">.st0{fill-rule:evenodd;clip-rule:evenodd;fill:#00D8FF;}</style>

 <g>
  <title>background</title>
  <rect fill="#232325" id="canvas_background" height="182" width="182" y="-1" x="-1"/>
 </g>
 <g>
  <title>Layer 1</title>
  <g id="svg_5">
   <g id="svg_1">
    <path id="svg_2" d="m135.43848,64.95226c0,-6.02019 -7.53633,-11.72236 -19.09598,-15.26495c2.66989,-11.78153 1.47916,-21.15202 -3.74228,-24.15472c-1.20552,-0.7026 -2.61072,-1.03541 -4.14905,-1.03541l0,4.13426c0.85052,0 1.53833,0.1701 2.1152,0.48073c2.52197,1.44218 3.60916,6.94467 2.75864,14.02246c-0.20708,1.73802 -0.53989,3.57218 -0.94666,5.44332c-3.63134,-0.8875 -7.5955,-1.57531 -11.75934,-2.01906c-2.49978,-3.42426 -5.09571,-6.5379 -7.70643,-9.25955c6.03498,-5.62082 11.70017,-8.69008 15.55339,-8.69008l0,-4.13426l0,0c-5.09571,0 -11.75934,3.63134 -18.50432,9.93257c-6.74498,-6.26425 -13.4086,-9.85861 -18.50432,-9.85861l0,4.13426c3.83103,0 9.51841,3.05447 15.56078,8.63091c-2.59593,2.72166 -5.18446,5.81311 -7.64727,9.24476c-4.18603,0.44375 -8.15018,1.13156 -11.78153,2.03385c-0.42896,-1.84895 -0.73958,-3.64613 -0.96146,-5.36936c-0.87271,-7.07779 0.20708,-12.58027 2.70687,-14.04464c0.55469,-0.33281 1.27948,-0.48073 2.12999,-0.48073l0,-4.12686l0,0c-1.55312,0 -2.96572,0.33281 -4.18603,1.03541c-5.20665,3.0027 -6.37519,12.3584 -3.68311,24.10294c-11.53746,3.54999 -19.03681,9.23737 -19.03681,15.24276c0,6.02019 7.53633,11.72236 19.09598,15.26495c-2.66989,11.78153 -1.47916,21.15202 3.74228,24.15472c1.20552,0.7026 2.61072,1.03541 4.17124,1.03541c5.09571,0 11.75934,-3.63134 18.50432,-9.93257c6.74498,6.26425 13.4086,9.85861 18.50432,9.85861c1.55312,0 2.96572,-0.33281 4.18603,-1.03541c5.20665,-3.0027 6.37519,-12.3584 3.68311,-24.10294c11.49309,-3.5352 18.99244,-9.24476 18.99244,-15.24276l0,0zm-36.99384,0c0,-4.67415 -3.78665,-8.4682 -8.4682,-8.4682c-4.67415,0 -8.4682,3.78665 -8.4682,8.4682s3.78665,8.4682 8.4682,8.4682c4.68155,-0.0074 8.4682,-3.79405 8.4682,-8.4682l0,0zm-27.0095,-40.40331l0,0l0,0l0,0zm39.8856,28.04491c-0.68781,2.38885 -1.53833,4.85165 -2.49978,7.31446c-0.76177,-1.47916 -1.55312,-2.96572 -2.42583,-4.44488c-0.85052,-1.47916 -1.7602,-2.92874 -2.66989,-4.33394c2.63291,0.39198 5.16967,0.87271 7.5955,1.46437l0,0zm-8.48299,19.73202c-1.44218,2.49978 -2.92874,4.87384 -4.46707,7.07779c-2.75864,0.24406 -5.55425,0.36979 -8.37206,0.36979c-2.79562,0 -5.59123,-0.13312 -8.33508,-0.355c-1.53833,-2.20395 -3.03968,-4.55582 -4.48186,-7.04081c-1.4052,-2.42583 -2.68468,-4.88863 -3.85322,-7.37362c1.14635,-2.48499 2.44801,-4.96259 3.83103,-7.38841c1.44218,-2.49978 2.92874,-4.87384 4.46707,-7.07779c2.75864,-0.24406 5.55425,-0.36979 8.37206,-0.36979c2.79562,0 5.59123,0.13312 8.33508,0.355c1.53833,2.20395 3.03968,4.55582 4.48186,7.04081c1.4052,2.42583 2.68468,4.88863 3.85322,7.37362c-1.16854,2.4776 -2.44062,4.95519 -3.83103,7.38841l0,0zm5.98321,-2.41103c0.99843,2.48499 1.84895,4.96259 2.55895,7.37362c-2.42583,0.59166 -4.98478,1.09458 -7.63248,1.47916c0.90968,-1.42739 1.81197,-2.89176 2.66989,-4.39311c0.84312,-1.47916 1.64187,-2.98051 2.40364,-4.45967l0,0zm-18.78536,19.7616c-1.72322,-1.77499 -3.44645,-3.75707 -5.14748,-5.92404c1.66406,0.07396 3.37249,0.13312 5.09571,0.13312c1.73802,0 3.46124,-0.03698 5.14748,-0.13312c-1.67145,2.16697 -3.39468,4.14905 -5.09571,5.92404l0,0zm-13.77839,-10.90882c-2.63291,-0.39198 -5.16967,-0.87271 -7.5955,-1.46437c0.68781,-2.38885 1.53833,-4.85165 2.49978,-7.31446c0.76177,1.47916 1.55312,2.96572 2.42583,4.44488c0.87271,1.48656 1.7602,2.92874 2.66989,4.33394l0,0zm13.68225,-38.54696c1.72322,1.77499 3.44645,3.75707 5.14748,5.92404c-1.66406,-0.07396 -3.37249,-0.13312 -5.09571,-0.13312c-1.73802,0 -3.46124,0.03698 -5.14748,0.13312c1.67145,-2.16697 3.39468,-4.14905 5.09571,-5.92404l0,0zm-13.70444,10.90882c-0.90968,1.42739 -1.81197,2.89176 -2.66989,4.39311c-0.85052,1.47916 -1.64927,2.96572 -2.41103,4.44488c-0.99843,-2.48499 -1.84895,-4.96259 -2.55895,-7.37362c2.43322,-0.57687 4.99217,-1.07239 7.63987,-1.46437l0,0zm-16.7663,23.19326c-6.56008,-2.79562 -10.79788,-6.46394 -10.79788,-9.37049c0,-2.90655 4.24519,-6.59706 10.79788,-9.37049c1.5901,-0.68781 3.33551,-1.29427 5.13269,-1.87114c1.0576,3.63134 2.44801,7.4106 4.17124,11.27861c-1.70104,3.85322 -3.07666,7.61029 -4.11207,11.22684c-1.83416,-0.57687 -3.57957,-1.20552 -5.19186,-1.89333l0,0zm9.96955,26.4696c-2.52197,-1.44218 -3.60916,-6.94467 -2.75864,-14.02246c0.20708,-1.73802 0.53989,-3.57218 0.94666,-5.44332c3.63134,0.8875 7.5955,1.57531 11.75934,2.01906c2.49978,3.42426 5.09571,6.5379 7.70643,9.25955c-6.04238,5.61342 -11.70757,8.69008 -15.56078,8.69008c-0.83573,-0.02219 -1.53833,-0.1849 -2.09301,-0.50292l0,0zm43.93851,-14.11121c0.87271,7.07779 -0.20708,12.58027 -2.70687,14.04464c-0.55469,0.33281 -1.27948,0.48073 -2.12999,0.48073c-3.83103,0 -9.51841,-3.05447 -15.56078,-8.63091c2.59593,-2.72166 5.18446,-5.81311 7.64727,-9.24476c4.18603,-0.44375 8.15018,-1.13156 11.78153,-2.04124c0.42896,1.87114 0.76177,3.66832 0.96885,5.39155l0,0zm7.12956,-12.3584c-1.5901,0.68781 -3.33551,1.29427 -5.13269,1.87114c-1.0576,-3.63134 -2.44801,-7.4106 -4.17124,-11.27861c1.70104,-3.85322 3.07666,-7.61029 4.11207,-11.22684c1.83416,0.57687 3.57218,1.20552 5.20665,1.88593c6.56008,2.79562 10.79788,6.46394 10.79788,9.37049c-0.01479,2.91395 -4.25259,6.59706 -10.81267,9.37789l0,0z" class="st0"/>
   </g>
   <text xml:space="preserve" text-anchor="start" font-family="Helvetica, Arial, sans-serif" font-size="44" id="svg_4" y="145.925" x="32.53333" stroke-opacity="null" stroke-width="0" stroke="null" fill="#00d8ff">React</text>
  </g>
 </g>
</svg>