<svg width="180" height="180" xmlns="http://www.w3.org/2000/svg">
 <style type="text/css">.st0{fill-rule:evenodd;clip-rule:evenodd;fill:#3949AB;} .st1{fill-rule:evenodd;clip-rule:evenodd;fill:#283593;} .st2{fill-rule:evenodd;clip-rule:evenodd;fill:#5C6BC0;} .st3{fill-rule:evenodd;clip-rule:evenodd;fill:#FFFFFF;}</style>

 <g>
  <title>background</title>
  <rect fill="#19204b" id="canvas_background" height="182" width="182" y="-1" x="-1"/>
 </g>
 <g>
  <title>Layer 1</title>
  <g id="svg_1">
   <path id="svg_2" d="m143.210388,120.720551c0.859985,-1.480011 1.390015,-3.160004 1.390015,-4.660004l0,-52.119995c0,-1.5 -0.530029,-3.170013 -1.390015,-4.660004l-53.209991,30.720001l53.209991,30.720001l0,0l0,0z" class="st0"/>
   <path id="svg_3" d="m94.730408,150.310547l45.139984,-26.059998c1.299988,-0.75 2.480011,-2.049988 3.339996,-3.529999l-53.209991,-30.720001l-53.209991,30.720001c0.859985,1.480011 2.039978,2.779999 3.339966,3.529999l45.140015,26.059998c2.600006,1.5 6.850006,1.5 9.460022,0l0,0l0,0z" class="st1"/>
   <path id="svg_4" d="m143.210388,59.280548c-0.859985,-1.479996 -2.040009,-2.779999 -3.339996,-3.529999l-45.139984,-26.059998c-2.600006,-1.5 -6.860016,-1.5 -9.460022,0l-45.140015,26.059998c-2.599976,1.5 -4.72998,5.190002 -4.72998,8.190002l0,52.119995c0,1.5 0.529999,3.169983 1.390015,4.660004l53.209991,-30.720001l53.209991,-30.720001l0,0l0,0z" class="st2"/>
   <path id="svg_5" d="m90.000397,126.400543c-20.070007,0 -36.399994,-16.329987 -36.399994,-36.400009s16.329987,-36.399994 36.399994,-36.399994c12.949982,0 25.029999,6.970001 31.519989,18.189987l-15.75,9.12001c-3.25,-5.62001 -9.289978,-9.100006 -15.769989,-9.100006c-10.040009,0 -18.200012,8.160004 -18.200012,18.199997c0,10.029999 8.160004,18.200012 18.200012,18.200012c6.480011,0 12.519989,-3.490005 15.769989,-9.100006l15.75,9.119995c-6.48999,11.200012 -18.570007,18.170013 -31.519989,18.170013l0,0l0,0z" class="st3"/>
  </g>
 </g>
</svg>