<svg width="180" height="180" xmlns="http://www.w3.org/2000/svg">
 <style type="text/css">.st0{fill-rule:evenodd;clip-rule:evenodd;fill:#00599C;} .st1{fill-rule:evenodd;clip-rule:evenodd;fill:#004482;} .st2{fill-rule:evenodd;clip-rule:evenodd;fill:#659AD2;} .st3{fill-rule:evenodd;clip-rule:evenodd;fill:#FFFFFF;}</style>

 <g>
  <title>background</title>
  <rect fill="none" id="canvas_background" height="182" width="182" y="-1" x="-1"/>
 </g>
 <g>
  <title>Layer 1</title>
  <g id="svg_1">
   <path id="svg_2" d="m143.210388,120.716644c0.860001,-1.480003 1.389999,-3.160004 1.389999,-4.660004l0,-52.119999c0,-1.5 -0.529999,-3.170002 -1.389999,-4.66l-53.209999,30.720001l53.209999,30.720001l0,0z" class="st0"/>
   <path id="svg_3" d="m94.730392,150.306641l45.139999,-26.059998c1.299988,-0.75 2.479996,-2.050003 3.339996,-3.529999l-53.209999,-30.720001l-53.209999,30.720001c0.860001,1.479996 2.040001,2.779999 3.34,3.529999l45.139996,26.059998c2.600006,1.51001 6.860001,1.51001 9.460007,0l0,0z" class="st1"/>
   <path id="svg_4" d="m143.210388,59.276642c-0.860001,-1.480003 -2.040009,-2.779999 -3.339996,-3.529999l-45.139999,-26.060003c-2.600006,-1.5 -6.860001,-1.5 -9.460007,0l-45.139996,26.060003c-2.599998,1.5 -4.73,5.179996 -4.73,8.189999l0,52.119999c0,1.5 0.529999,3.169998 1.389999,4.660004l53.209999,-30.720001l53.209999,-30.720001l0,0z" class="st2"/>
   <path id="svg_5" d="m90.000389,126.396637c-20.07,0 -36.399998,-16.329994 -36.399998,-36.400009c0,-20.069992 16.329998,-36.399998 36.399998,-36.399998c12.950005,0 25.029999,6.970001 31.520004,18.189999l-15.75,9.120003c-3.25,-5.620003 -9.290001,-9.100006 -15.770004,-9.100006c-10.040001,0 -18.199997,8.160004 -18.199997,18.200005c0,10.029999 8.159996,18.199997 18.199997,18.199997c6.480003,0 12.520004,-3.489998 15.770004,-9.099998l15.75,9.120003c-6.490005,11.200012 -18.57,18.170006 -31.520004,18.170006l0,0z" class="st3"/>
   <polygon id="svg_6" points="126.400390625,87.97663879394531 122.35038757324219,87.97663879394531 122.35038757324219,83.92663955688477 118.31039428710938,83.92663955688477 118.31039428710938,87.97663879394531 114.26039123535156,87.97663879394531 114.26039123535156,92.01663970947266 118.31039428710938,92.01663970947266 118.31039428710938,96.06664276123047 122.35038757324219,96.06664276123047 122.35038757324219,92.01663970947266 126.400390625,92.01663970947266 126.400390625,87.97663879394531 " class="st3"/>
   <polygon id="svg_7" points="141.56039428710938,87.97663879394531 137.5203857421875,87.97663879394531 137.5203857421875,83.92663955688477 133.47039794921875,83.92663955688477 133.47039794921875,87.97663879394531 129.43038940429688,87.97663879394531 129.43038940429688,92.01663970947266 133.47039794921875,92.01663970947266 133.47039794921875,96.06664276123047 137.5203857421875,96.06664276123047 137.5203857421875,92.01663970947266 141.56039428710938,92.01663970947266 141.56039428710938,87.97663879394531 " class="st3"/>
  </g>
 </g>
</svg>