<?xml version="1.0" standalone="no"?>
<!DOCTYPE svg PUBLIC "-//W3C//DTD SVG 20010904//EN"
 "http://www.w3.org/TR/2001/REC-SVG-20010904/DTD/svg10.dtd">
<svg version="1.0" xmlns="http://www.w3.org/2000/svg"
 width="512.000000pt" height="512.000000pt" viewBox="0 0 512.000000 512.000000"
 preserveAspectRatio="xMidYMid meet">
<metadata>
Created by potrace 1.16, written by Peter Selinger 2001-2019
</metadata>
<g transform="translate(0.000000,512.000000) scale(0.100000,-0.100000)"
fill="#000000" stroke="none">
<path d="M2225 5101 c-179 -52 -324 -173 -403 -336 -63 -128 -63 -124 -62
-795 l0 -610 -611 0 c-671 0 -667 0 -794 -62 -167 -81 -293 -235 -339 -415
-23 -88 -23 -558 0 -646 46 -180 172 -334 339 -415 127 -62 123 -62 794 -62
l611 0 0 -611 c0 -671 0 -667 62 -794 81 -167 235 -293 415 -339 88 -23 558
-23 646 0 180 46 334 172 415 339 62 127 62 123 62 794 l0 611 611 0 c671 0
667 0 794 62 127 61 232 166 293 293 56 114 62 157 62 445 0 288 -6 331 -62
445 -61 127 -166 232 -293 293 -127 62 -123 62 -794 62 l-611 0 0 611 c0 671
0 667 -62 794 -81 167 -235 293 -415 339 -92 24 -573 22 -658 -3z m585 -408
c54 -25 103 -74 127 -128 17 -37 18 -94 21 -822 l3 -782 782 -3 c769 -3 783
-3 827 -24 54 -25 113 -87 131 -140 20 -55 20 -413 0 -468 -18 -53 -77 -115
-131 -140 -44 -21 -58 -21 -827 -24 l-782 -3 -3 -782 c-3 -769 -3 -783 -24
-827 -25 -54 -87 -113 -140 -131 -55 -20 -413 -20 -468 0 -53 18 -115 77 -140
131 -21 44 -21 58 -24 827 l-3 782 -782 3 c-769 3 -783 3 -827 24 -54 25 -113
87 -131 140 -20 55 -20 413 0 468 18 53 77 115 131 140 44 21 58 21 827 24
l782 3 3 782 c3 869 -1 821 71 895 68 71 115 82 352 79 158 -3 185 -5 225 -24z"/>
</g>
</svg>
